<?xml version="1.0" standalone="no"?>
<!DOCTYPE svg PUBLIC "-//W3C//DTD SVG 20010904//EN"
 "http://www.w3.org/TR/2001/REC-SVG-20010904/DTD/svg10.dtd">
<svg version="1.0" xmlns="http://www.w3.org/2000/svg"
 width="144.000000pt" height="108.000000pt" viewBox="0 0 144.000000 108.000000"
 preserveAspectRatio="xMidYMid meet">

<g transform="translate(0.000000,108.000000) scale(0.100000,-0.100000)"
fill="#000000" stroke="none">
<path d="M615 1066 c-83 -20 -146 -56 -211 -120 -72 -73 -110 -148 -127 -251
-10 -63 -15 -75 -30 -75 -11 0 -46 -14 -80 -32 -228 -122 -218 -441 18 -558
l50 -25 505 0 c502 0 505 0 546 22 53 28 99 74 127 127 31 58 31 174 0 232
-44 82 -122 139 -207 150 l-44 6 5 54 c13 123 -37 256 -131 350 -114 113 -268
157 -421 120z m251 -110 c77 -35 145 -103 181 -180 25 -55 28 -72 28 -169 0
-107 1 -109 28 -133 19 -16 40 -24 65 -24 21 0 58 -10 82 -22 132 -67 132
-249 0 -316 l-45 -23 -475 3 c-469 3 -476 3 -517 25 -97 52 -145 165 -112 264
26 78 82 127 176 154 62 18 77 41 86 128 24 243 282 394 503 293z"/>
</g>
</svg>
